<svg xmlns="http://www.w3.org/2000/svg" viewBox="0 0 430 96" role="img" aria-labelledby="title desc">
<title id="title">Byznio</title><desc id="desc">Moderní logo Byznio se symbolem B a názvem.</desc>
<defs><linearGradient id="g" x1="10" y1="6" x2="86" y2="90" gradientUnits="userSpaceOnUse"><stop stop-color="#39c9f5"/><stop offset=".5" stop-color="#1677ee"/><stop offset="1" stop-color="#5946e8"/></linearGradient></defs>
<rect x="3" y="3" width="90" height="90" rx="25" fill="url(#g)"/>
<path d="M30 20h24c13.8 0 22 6.4 22 16.9 0 6.5-3.2 11.2-9 14 6.3 2.5 10 7.2 10 14.2C77 76.5 67.7 83 54 83H30V20Zm14 11v15h9.2c5.4 0 8.6-2.5 8.6-7.5S58.6 31 53.2 31H44Zm0 25v16h10c6 0 9.5-2.6 9.5-8s-3.5-8-9.5-8H44Z" fill="#fff"/>
<text x="116" y="63" font-family="Inter,ui-sans-serif,system-ui,-apple-system,BlinkMacSystemFont,'Segoe UI',sans-serif" font-size="52" font-weight="800" letter-spacing="-2.2" fill="#0b2147">Byznio</text>
</svg>
