<svg xmlns="http://www.w3.org/2000/svg" viewBox="0 0 96 96" role="img" aria-labelledby="title desc">
  <title id="title">Byznio</title><desc id="desc">Modré logo Byznio ve tvaru písmene B se šipkou růstu.</desc>
  <defs>
    <linearGradient id="g" x1="10" y1="6" x2="86" y2="90" gradientUnits="userSpaceOnUse">
      <stop stop-color="#11c5ef"/>
      <stop offset=".55" stop-color="#1677ee"/>
      <stop offset="1" stop-color="#5946e8"/>
    </linearGradient>
  </defs>
  <rect x="3" y="3" width="90" height="90" rx="25" fill="url(#g)"/>
  <path d="M22 23h30c14 0 23 7 23 18 0 7-4 12-10 15 7 3 11 8 11 15 0 13-11 21-27 21H22V23Zm17 14v13h11c5 0 8-2 8-7 0-4-3-6-8-6H39Zm0 27v15h12c6 0 10-3 10-8s-4-7-10-7H39Z" fill="#fff" opacity=".96"/>
  <path d="M14 66c17-8 29-17 41-28l9 9 13-15-2 21-16-4 9-9-8-8C48 44 34 55 14 65v1Z" fill="#fff"/>
</svg>
